<svg width="120" height="21" fill="none" xmlns="http://www.w3.org/2000/svg"><path fill-rule="evenodd" clip-rule="evenodd" d="M4.37 9.47h2.457c1.97 0 2.885-.71 2.885-3.062 0-2.432-.858-3.17-2.856-3.17H4.37V9.47zm-2.572 9.896c-.485 0-.885-.383-.885-.847V1.297c0-.465.4-.847.885-.847h4.886c4.343 0 6.628 1.722 6.628 5.741 0 3.717-1.571 6.013-6.285 6.013H4.37v6.315c0 .464-.401.847-.885.847H1.798zm15.713 0c-.485 0-.886-.383-.886-.848V6.381c0-.464.401-.847.886-.847h.828c.515 0 .972.355 1.058.82l.199.93c.972-1.203 2.258-1.996 3.772-1.996.143 0 .314 0 .457.027.2.028.343.165.343.437l-.371 2.242c-.03.274-.315.464-.63.41a4.102 4.102 0 00-.628-.054c-1.114 0-1.828.328-2.656 1.01v9.158c0 .465-.402.847-.887.847h-1.485zm17.312-6.943c0 3.91-.714 4.948-2.6 4.948-1.885 0-2.628-1.012-2.628-4.92 0-3.965.714-4.921 2.6-4.921 1.886 0 2.628.929 2.628 4.893zm-8.685 0c0 5.194 2.342 7.3 6.085 7.3s6.086-2.078 6.086-7.272c0-5.194-2.371-7.272-6.114-7.272s-6.057 2.023-6.057 7.244zm19.17 4.127h2.313c3.058 0 3.972-1.42 3.972-6.806 0-5.084-.886-6.506-3.972-6.506h-2.314V16.55zm-2.572 2.816c-.486 0-.885-.383-.885-.847V1.297c0-.464.4-.847.885-.847h4.829c5.199 0 7.77 2.378 7.77 9.43 0 6.753-2.143 9.486-7.628 9.486h-4.97zm19.026-8.256c.17-2.897.942-3.608 2.4-3.608 1.8 0 2.314.93 2.343 3.608h-4.743zm-3.485 1.313c0 5.194 2.143 7.298 6.456 7.298 1.715 0 3-.41 4.114-1.093.4-.273.515-.792.23-1.176l-.543-.738c-.258-.383-.829-.492-1.23-.246a4.735 4.735 0 01-2.599.74c-2.056 0-2.856-.712-2.971-3.882h7.628c.256 0 .486-.22.486-.493v-.52c0-5.056-1.83-7.134-5.713-7.134-3.629 0-5.858 1.996-5.858 7.244zm42.023 4.948c1.887 0 2.6-1.039 2.6-4.948 0-3.964-.742-4.893-2.628-4.893-1.886 0-2.6.956-2.6 4.921 0 3.908.743 4.92 2.628 4.92zm0 2.351c-3.742 0-6.084-2.105-6.084-7.3 0-5.22 2.314-7.243 6.056-7.243 3.744 0 6.114 2.078 6.114 7.272 0 5.194-2.342 7.271-6.086 7.271zm8.971-.958c1.086.52 2.598.957 4.285.957 3.514 0 5.2-1.475 5.2-4.347 0-3.033-1.885-3.88-4.113-4.455-1.801-.465-2.316-.71-2.316-1.804 0-.956.629-1.394 1.858-1.394.829 0 1.513.11 2.257.383a.878.878 0 001.114-.492l.314-.794c.172-.437-.057-.929-.514-1.12-.943-.328-1.972-.519-3.428-.519-3.143 0-4.715 1.612-4.715 3.99 0 2.652 1.543 3.773 3.543 4.293 2.087.546 2.771.792 2.771 2.05 0 1.093-.6 1.64-2.257 1.64-1.028 0-1.971-.273-2.857-.711-.428-.219-.97-.055-1.17.382l-.401.793c-.2.41-.028.93.429 1.148zM73.275 9.605v8.914c0 .464.4.847.886.847h1.486c.485 0 .884-.383.884-.847V9.605h-3.256zm7.171 8.914V9.605h3.257v8.914c0 .464-.4.847-.886.847h-1.485c-.485 0-.886-.383-.886-.847zm7.171-8.914v8.914c0 .464.4.847.886.847h1.486c.486 0 .885-.383.885-.847V9.605h-3.257zm3.257-1.66H73.275V5.33h17.6v2.613z" fill="#fff"/></svg>